<svg width="237" height="35" viewBox="0 0 237 35" fill="none" xmlns="http://www.w3.org/2000/svg">
<path d="M12.816 26L4.688 16.048V26H0.208V3.664H4.688V13.68L12.816 3.664H18.224L9.008 14.736L18.48 26H12.816ZM23.6988 6.16C22.9094 6.16 22.2481 5.91467 21.7148 5.424C21.2028 4.912 20.9468 4.28267 20.9468 3.536C20.9468 2.78933 21.2028 2.17067 21.7148 1.68C22.2481 1.168 22.9094 0.911999 23.6988 0.911999C24.4881 0.911999 25.1388 1.168 25.6508 1.68C26.1841 2.17067 26.4508 2.78933 26.4508 3.536C26.4508 4.28267 26.1841 4.912 25.6508 5.424C25.1388 5.91467 24.4881 6.16 23.6988 6.16ZM25.9068 8.272V26H21.4268V8.272H25.9068ZM40.157 8.016C42.269 8.016 43.9757 8.688 45.277 10.032C46.5783 11.3547 47.229 13.2107 47.229 15.6V26H42.749V16.208C42.749 14.8 42.397 13.7227 41.693 12.976C40.989 12.208 40.029 11.824 38.813 11.824C37.5757 11.824 36.5943 12.208 35.869 12.976C35.165 13.7227 34.813 14.8 34.813 16.208V26H30.333V8.272H34.813V10.48C35.4103 9.712 36.1677 9.11467 37.085 8.688C38.0237 8.24 39.0477 8.016 40.157 8.016ZM58.4333 7.984C59.7559 7.984 60.9186 8.25067 61.9213 8.784C62.9239 9.296 63.7133 9.968 64.2893 10.8V8.272H68.8013V26.128C68.8013 27.7707 68.4706 29.232 67.8093 30.512C67.1479 31.8133 66.1559 32.8373 64.8333 33.584C63.5106 34.352 61.9106 34.736 60.0333 34.736C57.5159 34.736 55.4466 34.1493 53.8253 32.976C52.2253 31.8027 51.3186 30.2027 51.1053 28.176H55.5533C55.7879 28.9867 56.2893 29.6267 57.0573 30.096C57.8466 30.5867 58.7959 30.832 59.9053 30.832C61.2066 30.832 62.2626 30.4373 63.0733 29.648C63.8839 28.88 64.2893 27.7067 64.2893 26.128V23.376C63.7133 24.208 62.9133 24.9013 61.8893 25.456C60.8866 26.0107 59.7346 26.288 58.4333 26.288C56.9399 26.288 55.5746 25.904 54.3373 25.136C53.0999 24.368 52.1186 23.2907 51.3932 21.904C50.6892 20.496 50.3372 18.8853 50.3372 17.072C50.3372 15.28 50.6892 13.6907 51.3932 12.304C52.1186 10.9173 53.0893 9.85067 54.3053 9.104C55.5426 8.35733 56.9186 7.984 58.4333 7.984ZM64.2893 17.136C64.2893 16.048 64.0759 15.12 63.6493 14.352C63.2226 13.5627 62.6466 12.9653 61.9213 12.56C61.1959 12.1333 60.4173 11.92 59.5853 11.92C58.7533 11.92 57.9853 12.1227 57.2812 12.528C56.5773 12.9333 56.0013 13.5307 55.5533 14.32C55.1266 15.088 54.9133 16.0053 54.9133 17.072C54.9133 18.1387 55.1266 19.0773 55.5533 19.888C56.0013 20.6773 56.5773 21.2853 57.2812 21.712C58.0066 22.1387 58.7746 22.352 59.5853 22.352C60.4173 22.352 61.1959 22.1493 61.9213 21.744C62.6466 21.3173 63.2226 20.72 63.6493 19.952C64.0759 19.1627 64.2893 18.224 64.2893 17.136ZM93.4738 14.544C94.7324 14.7787 95.7671 15.408 96.5778 16.432C97.3884 17.456 97.7938 18.6293 97.7938 19.952C97.7938 21.1467 97.4951 22.2027 96.8978 23.12C96.3218 24.016 95.4791 24.72 94.3698 25.232C93.2604 25.744 91.9484 26 90.4338 26H80.8018V3.664H90.0178C91.5324 3.664 92.8338 3.90933 93.9218 4.4C95.0311 4.89067 95.8631 5.57333 96.4178 6.448C96.9938 7.32267 97.2818 8.31467 97.2818 9.424C97.2818 10.7253 96.9298 11.8133 96.2257 12.688C95.5431 13.5627 94.6258 14.1813 93.4738 14.544ZM85.2818 12.88H89.3778C90.4444 12.88 91.2658 12.6453 91.8418 12.176C92.4178 11.6853 92.7058 10.992 92.7058 10.096C92.7058 9.2 92.4178 8.50667 91.8418 8.016C91.2658 7.52533 90.4444 7.28 89.3778 7.28H85.2818V12.88ZM89.7938 22.352C90.8818 22.352 91.7244 22.096 92.3218 21.584C92.9404 21.072 93.2498 20.3467 93.2498 19.408C93.2498 18.448 92.9298 17.7013 92.2898 17.168C91.6498 16.6133 90.7858 16.336 89.6978 16.336H85.2818V22.352H89.7938ZM103.636 6.16C102.847 6.16 102.186 5.91467 101.652 5.424C101.14 4.912 100.884 4.28267 100.884 3.536C100.884 2.78933 101.14 2.17067 101.652 1.68C102.186 1.168 102.847 0.911999 103.636 0.911999C104.426 0.911999 105.076 1.168 105.588 1.68C106.122 2.17067 106.388 2.78933 106.388 3.536C106.388 4.28267 106.122 4.912 105.588 5.424C105.076 5.91467 104.426 6.16 103.636 6.16ZM105.844 8.272V26H101.364V8.272H105.844ZM120.767 26L114.751 18.448V26H110.271V2.32H114.751V15.792L120.703 8.272H126.527L118.719 17.168L126.591 26H120.767ZM145.438 16.752C145.438 17.392 145.395 17.968 145.31 18.48H132.35C132.457 19.76 132.905 20.7627 133.694 21.488C134.483 22.2133 135.454 22.576 136.606 22.576C138.27 22.576 139.454 21.8613 140.158 20.432H144.99C144.478 22.1387 143.497 23.5467 142.046 24.656C140.595 25.744 138.814 26.288 136.702 26.288C134.995 26.288 133.459 25.9147 132.094 25.168C130.75 24.4 129.694 23.3227 128.926 21.936C128.179 20.5493 127.806 18.9493 127.806 17.136C127.806 15.3013 128.179 13.6907 128.926 12.304C129.673 10.9173 130.718 9.85067 132.062 9.104C133.406 8.35733 134.953 7.984 136.702 7.984C138.387 7.984 139.891 8.34667 141.214 9.072C142.558 9.79733 143.593 10.832 144.318 12.176C145.065 13.4987 145.438 15.024 145.438 16.752ZM140.798 15.472C140.777 14.32 140.361 13.4027 139.55 12.72C138.739 12.016 137.747 11.664 136.574 11.664C135.465 11.664 134.526 12.0053 133.758 12.688C133.011 13.3493 132.553 14.2773 132.382 15.472H140.798ZM172.621 10.576C172.621 11.7707 172.333 12.8907 171.757 13.936C171.202 14.9813 170.317 15.824 169.101 16.464C167.906 17.104 166.392 17.424 164.557 17.424H160.813V26H156.333V3.664H164.557C166.285 3.664 167.757 3.96267 168.973 4.56C170.189 5.15733 171.096 5.97867 171.693 7.024C172.312 8.06933 172.621 9.25333 172.621 10.576ZM164.365 13.808C165.602 13.808 166.52 13.5307 167.117 12.976C167.714 12.4 168.013 11.6 168.013 10.576C168.013 8.4 166.797 7.312 164.365 7.312H160.813V13.808H164.365ZM174.65 17.072C174.65 15.28 175.002 13.6907 175.706 12.304C176.431 10.9173 177.402 9.85067 178.618 9.104C179.855 8.35733 181.231 7.984 182.746 7.984C184.068 7.984 185.22 8.25067 186.202 8.784C187.204 9.31733 188.004 9.98933 188.602 10.8V8.272H193.114V26H188.602V23.408C188.026 24.24 187.226 24.9333 186.202 25.488C185.199 26.0213 184.036 26.288 182.714 26.288C181.22 26.288 179.855 25.904 178.618 25.136C177.402 24.368 176.431 23.2907 175.706 21.904C175.002 20.496 174.65 18.8853 174.65 17.072ZM188.602 17.136C188.602 16.048 188.388 15.12 187.962 14.352C187.535 13.5627 186.959 12.9653 186.234 12.56C185.508 12.1333 184.73 11.92 183.898 11.92C183.066 11.92 182.298 12.1227 181.594 12.528C180.89 12.9333 180.314 13.5307 179.866 14.32C179.439 15.088 179.226 16.0053 179.226 17.072C179.226 18.1387 179.439 19.0773 179.866 19.888C180.314 20.6773 180.89 21.2853 181.594 21.712C182.319 22.1387 183.087 22.352 183.898 22.352C184.73 22.352 185.508 22.1493 186.234 21.744C186.959 21.3173 187.535 20.72 187.962 19.952C188.388 19.1627 188.602 18.224 188.602 17.136ZM201.969 11.024C202.545 10.0853 203.292 9.34933 204.209 8.816C205.148 8.28267 206.215 8.016 207.409 8.016V12.72H206.225C204.817 12.72 203.751 13.0507 203.025 13.712C202.321 14.3733 201.969 15.5253 201.969 17.168V26H197.489V8.272H201.969V11.024ZM215.643 11.952V20.528C215.643 21.1253 215.781 21.5627 216.059 21.84C216.357 22.096 216.848 22.224 217.531 22.224H219.611V26H216.795C213.019 26 211.131 24.1653 211.131 20.496V11.952H209.019V8.272H211.131V3.888H215.643V8.272H219.611V11.952H215.643ZM229.617 26.288C228.166 26.288 226.865 26.032 225.713 25.52C224.561 24.9867 223.644 24.272 222.961 23.376C222.3 22.48 221.937 21.488 221.873 20.4H226.385C226.47 21.0827 226.801 21.648 227.377 22.096C227.974 22.544 228.71 22.768 229.585 22.768C230.438 22.768 231.1 22.5973 231.569 22.256C232.06 21.9147 232.305 21.4773 232.305 20.944C232.305 20.368 232.006 19.9413 231.409 19.664C230.833 19.3653 229.905 19.0453 228.625 18.704C227.302 18.384 226.214 18.0533 225.361 17.712C224.529 17.3707 223.804 16.848 223.185 16.144C222.588 15.44 222.289 14.4907 222.289 13.296C222.289 12.3147 222.566 11.4187 223.121 10.608C223.697 9.79733 224.508 9.15733 225.553 8.688C226.62 8.21867 227.868 7.984 229.297 7.984C231.409 7.984 233.094 8.51733 234.353 9.584C235.612 10.6293 236.305 12.048 236.433 13.84H232.145C232.081 13.136 231.782 12.5813 231.249 12.176C230.737 11.7493 230.044 11.536 229.169 11.536C228.358 11.536 227.729 11.6853 227.281 11.984C226.854 12.2827 226.641 12.6987 226.641 13.232C226.641 13.8293 226.94 14.288 227.537 14.608C228.134 14.9067 229.062 15.216 230.321 15.536C231.601 15.856 232.657 16.1867 233.489 16.528C234.321 16.8693 235.036 17.4027 235.633 18.128C236.252 18.832 236.572 19.7707 236.593 20.944C236.593 21.968 236.305 22.8853 235.729 23.696C235.174 24.5067 234.364 25.1467 233.297 25.616C232.252 26.064 231.025 26.288 229.617 26.288Z" fill="white"/>
</svg>
